Motion_pu02
version=1
nRows=5
nColumns=43
inDegrees=yes
endheader
time	pelvis_tilt	pelvis_list	pelvis_rotation	pelvis_tx	pelvis_ty	pelvis_tz	hip_flexion_r	hip_adduction_r	hip_rotation_r	knee_angle_r	ankle_angle_r	subtalar_angle_r	mtp_angle_r	hip_flexion_l	hip_adduction_l	hip_rotation_l	knee_angle_l	ankle_angle_l	subtalar_angle_l	mtp_angle_l	lumbar_extension	lumbar_bending	lumbar_rotation	neck_flexion	neck_lateral_bending	neck_rotation	arm_flex_r	arm_add_r	arm_rot_r	elbow_flex_r	pro_sup_r	wrist_flex_r	wrist_dev_r	hand_finger_flex_r	arm_flex_l	arm_add_l	arm_rot_l	elbow_flex_l	pro_sup_l	wrist_flex_l	wrist_dev_l	hand_finger_flex_l
      0.00250000	     -2.13279115	     -2.24155671	    -99.07797718	     -0.00558268	      0.94824985	      0.24562353	     -3.75716516	     -6.79411382	     -9.85572958	    -12.41661445	      9.19302600	     16.33329915	     15.19412511	     -8.11768940	     -8.49272572	    -22.30166278	    -10.66198486	      9.32911570	     15.75810017	     14.35527210	     -5.12110264	      2.14014790	      3.11374545	      2.26729092	     -4.24694754	      9.92981345	     -1.18800915	    -65.40542856	    -74.98803855	     50.65514485	     96.37374989	      3.62401636	      9.82094297	    -24.97586038	    -34.03747850	    -56.34493697	    -91.74794245	     57.76324474	     78.72462981	     -4.62214860	     12.28803129	     27.03300322
      0.00500000	     -2.13748484	     -2.24283590	    -99.07911609	     -0.00553177	      0.94830775	      0.24557355	     -3.75717632	     -6.79470046	     -9.85579767	    -12.41648640	      9.19277552	     16.33324176	     15.19416398	     -8.11721173	     -8.49261736	    -22.30179337	    -10.66182950	      9.32895426	     15.75815028	     14.35531810	     -5.11944395	      2.13635493	      3.11293332	      2.26746063	     -4.24702203	      9.93005314	     -1.18814466	    -65.40674989	    -74.98845827	     50.65524721	     96.37364983	      3.62394936	      9.82099103	    -24.97586770	    -34.03753446	    -56.34494998	    -91.74764183	     57.76347280	     78.72471840	     -4.62214589	     12.28816579	     27.03324006
      0.00750000	     -2.14210036	     -2.24491137	    -99.08069995	     -0.00549279	      0.94836072	      0.24552755	     -3.75697153	     -6.79498642	     -9.85580218	    -12.41627959	      9.19245636	     16.33322271	     15.19419992	     -8.11624211	     -8.49291239	    -22.30189685	    -10.66136359	      9.32878557	     15.75819734	     14.35536408	     -5.11775575	      2.13185705	      3.11164146	      2.26753363	     -4.24694421	      9.93030257	     -1.18841565	    -65.40842346	    -74.98880996	     50.65495350	     96.37351749	      3.62396587	      9.82111117	    -24.97585839	    -34.03766827	    -56.34497787	    -91.74717406	     57.76401214	     78.72481411	     -4.62207074	     12.28830852	     27.03353016
      0.01000000	     -2.14581604	     -2.24686907	    -99.08223592	     -0.00546356	      0.94840609	      0.24548771	     -3.75674640	     -6.79489432	     -9.85574256	    -12.41609137	      9.19207062	     16.33324476	     15.19423332	     -8.11515356	     -8.49358240	    -22.30197949	    -10.66075980	      9.32860478	     15.75823155	     14.35540994	     -5.11640478	      2.12724758	      3.11035228	      2.26750031	     -4.24671235	      9.93055917	     -1.18880544	    -65.41016859	    -74.98898010	     50.65423618	     96.37334621	      3.62409340	      9.82131706	    -24.97582567	    -34.03786916	    -56.34508368	    -91.74660138	     57.76485406	     78.72491211	     -4.62193443	     12.28845134	     27.03386545
      0.01250000	     -2.14865081	     -2.24842902	    -99.08348716	     -0.00544451	      0.94844328	      0.24545631	     -3.75652248	     -6.79448537	     -9.85562090	    -12.41592448	      9.19160771	     16.33330260	     15.19426641	     -8.11404753	     -8.49453541	    -22.30205659	    -10.66008574	      9.32840007	     15.75825272	     14.35545807	     -5.11550038	      2.12261824	      3.10927889	      2.26737059	     -4.24632990	      9.93083552	     -1.18929939	    -65.41185313	    -74.98892948	     50.65305731	     96.37311688	      3.62434999	      9.82162971	    -24.97576561	    -34.03811965	    -56.34528399	    -91.74592660	     57.76599514	     78.72501383	     -4.62174216	     12.28859914	     27.03425487
